<mxfile host="app.diagrams.net" modified="2024-02-11T20:08:38.185Z" agent="Mozilla/5.0 (Macintosh; Intel Mac OS X 10_15_7) AppleWebKit/537.36 (KHTML, like Gecko) Chrome/121.0.0.0 Safari/537.36" etag="Gy99nqUmjtcqg3zAGGw6" version="23.1.2" type="github">
  <diagram name="Page-1" id="e56a1550-8fbb-45ad-956c-1786394a9013">
    <mxGraphModel dx="2406" dy="731" grid="1" gridSize="10" guides="1" tooltips="1" connect="1" arrows="1" fold="1" page="1" pageScale="1" pageWidth="1100" pageHeight="850" background="none" math="0" shadow="0">
      <root>
        <mxCell id="0" />
        <mxCell id="1" parent="0" />
        <mxCell id="HMYjzG47Mp5TnK5JBlbz-1" value="AnalyticsEvent(Data class)" style="swimlane;fontStyle=0;childLayout=stackLayout;horizontal=1;startSize=26;fillColor=none;horizontalStack=0;resizeParent=1;resizeParentMax=0;resizeLast=0;collapsible=1;marginBottom=0;whiteSpace=wrap;html=1;" vertex="1" parent="1">
          <mxGeometry x="280" y="60" width="160" height="104" as="geometry" />
        </mxCell>
        <mxCell id="HMYjzG47Mp5TnK5JBlbz-2" value="+ type: AnalyitcsProvider" style="text;strokeColor=none;fillColor=none;align=left;verticalAlign=top;spacingLeft=4;spacingRight=4;overflow=hidden;rotatable=0;points=[[0,0.5],[1,0.5]];portConstraint=eastwest;whiteSpace=wrap;html=1;" vertex="1" parent="HMYjzG47Mp5TnK5JBlbz-1">
          <mxGeometry y="26" width="160" height="26" as="geometry" />
        </mxCell>
        <mxCell id="HMYjzG47Mp5TnK5JBlbz-3" value="+ key: String" style="text;strokeColor=none;fillColor=none;align=left;verticalAlign=top;spacingLeft=4;spacingRight=4;overflow=hidden;rotatable=0;points=[[0,0.5],[1,0.5]];portConstraint=eastwest;whiteSpace=wrap;html=1;" vertex="1" parent="HMYjzG47Mp5TnK5JBlbz-1">
          <mxGeometry y="52" width="160" height="26" as="geometry" />
        </mxCell>
        <mxCell id="HMYjzG47Mp5TnK5JBlbz-4" value="+ values: Map&amp;lt;String, Any&amp;gt;" style="text;strokeColor=none;fillColor=none;align=left;verticalAlign=top;spacingLeft=4;spacingRight=4;overflow=hidden;rotatable=0;points=[[0,0.5],[1,0.5]];portConstraint=eastwest;whiteSpace=wrap;html=1;" vertex="1" parent="HMYjzG47Mp5TnK5JBlbz-1">
          <mxGeometry y="78" width="160" height="26" as="geometry" />
        </mxCell>
        <mxCell id="HMYjzG47Mp5TnK5JBlbz-5" value="AnalyticsProvider(Enum class)" style="swimlane;fontStyle=0;childLayout=stackLayout;horizontal=1;startSize=26;fillColor=none;horizontalStack=0;resizeParent=1;resizeParentMax=0;resizeLast=0;collapsible=1;marginBottom=0;whiteSpace=wrap;html=1;" vertex="1" parent="1">
          <mxGeometry x="40" y="60" width="160" height="104" as="geometry" />
        </mxCell>
        <mxCell id="HMYjzG47Mp5TnK5JBlbz-6" value="+ CONSOLE" style="text;strokeColor=none;fillColor=none;align=left;verticalAlign=top;spacingLeft=4;spacingRight=4;overflow=hidden;rotatable=0;points=[[0,0.5],[1,0.5]];portConstraint=eastwest;whiteSpace=wrap;html=1;" vertex="1" parent="HMYjzG47Mp5TnK5JBlbz-5">
          <mxGeometry y="26" width="160" height="26" as="geometry" />
        </mxCell>
        <mxCell id="HMYjzG47Mp5TnK5JBlbz-7" value="+ FIREBASE" style="text;strokeColor=none;fillColor=none;align=left;verticalAlign=top;spacingLeft=4;spacingRight=4;overflow=hidden;rotatable=0;points=[[0,0.5],[1,0.5]];portConstraint=eastwest;whiteSpace=wrap;html=1;" vertex="1" parent="HMYjzG47Mp5TnK5JBlbz-5">
          <mxGeometry y="52" width="160" height="26" as="geometry" />
        </mxCell>
        <mxCell id="HMYjzG47Mp5TnK5JBlbz-8" value="+ ADOBE" style="text;strokeColor=none;fillColor=none;align=left;verticalAlign=top;spacingLeft=4;spacingRight=4;overflow=hidden;rotatable=0;points=[[0,0.5],[1,0.5]];portConstraint=eastwest;whiteSpace=wrap;html=1;" vertex="1" parent="HMYjzG47Mp5TnK5JBlbz-5">
          <mxGeometry y="78" width="160" height="26" as="geometry" />
        </mxCell>
        <mxCell id="HMYjzG47Mp5TnK5JBlbz-9" value="AnalyticsHelper(Interface)" style="swimlane;fontStyle=0;childLayout=stackLayout;horizontal=1;startSize=26;fillColor=none;horizontalStack=0;resizeParent=1;resizeParentMax=0;resizeLast=0;collapsible=1;marginBottom=0;whiteSpace=wrap;html=1;" vertex="1" parent="1">
          <mxGeometry x="160" y="250" width="160" height="90" as="geometry" />
        </mxCell>
        <mxCell id="HMYjzG47Mp5TnK5JBlbz-10" value="+ logEvent(event: AnalyticsEvent)" style="text;strokeColor=none;fillColor=none;align=left;verticalAlign=top;spacingLeft=4;spacingRight=4;overflow=hidden;rotatable=0;points=[[0,0.5],[1,0.5]];portConstraint=eastwest;whiteSpace=wrap;html=1;" vertex="1" parent="HMYjzG47Mp5TnK5JBlbz-9">
          <mxGeometry y="26" width="160" height="64" as="geometry" />
        </mxCell>
        <mxCell id="HMYjzG47Mp5TnK5JBlbz-13" value="implement" style="endArrow=block;endSize=16;endFill=0;html=1;rounded=0;entryX=0.506;entryY=1;entryDx=0;entryDy=0;entryPerimeter=0;" edge="1" parent="1" target="HMYjzG47Mp5TnK5JBlbz-10">
          <mxGeometry width="160" relative="1" as="geometry">
            <mxPoint x="241" y="400" as="sourcePoint" />
            <mxPoint x="630" y="370" as="targetPoint" />
            <mxPoint as="offset" />
          </mxGeometry>
        </mxCell>
        <mxCell id="HMYjzG47Mp5TnK5JBlbz-14" value="AdobeAnalyticsHelper(class)" style="swimlane;fontStyle=0;childLayout=stackLayout;horizontal=1;startSize=26;fillColor=none;horizontalStack=0;resizeParent=1;resizeParentMax=0;resizeLast=0;collapsible=1;marginBottom=0;whiteSpace=wrap;html=1;" vertex="1" parent="1">
          <mxGeometry x="280" y="629" width="160" height="90" as="geometry" />
        </mxCell>
        <mxCell id="HMYjzG47Mp5TnK5JBlbz-15" value="+ override logEvent(event: AnalyticsEvent)&lt;br&gt;&lt;br&gt;+ init()" style="text;strokeColor=none;fillColor=none;align=left;verticalAlign=top;spacingLeft=4;spacingRight=4;overflow=hidden;rotatable=0;points=[[0,0.5],[1,0.5]];portConstraint=eastwest;whiteSpace=wrap;html=1;" vertex="1" parent="HMYjzG47Mp5TnK5JBlbz-14">
          <mxGeometry y="26" width="160" height="64" as="geometry" />
        </mxCell>
        <mxCell id="HMYjzG47Mp5TnK5JBlbz-16" value="FirebaseAnalyticsHelper(class)" style="swimlane;fontStyle=0;childLayout=stackLayout;horizontal=1;startSize=26;fillColor=none;horizontalStack=0;resizeParent=1;resizeParentMax=0;resizeLast=0;collapsible=1;marginBottom=0;whiteSpace=wrap;html=1;" vertex="1" parent="1">
          <mxGeometry x="-160" y="640" width="160" height="90" as="geometry" />
        </mxCell>
        <mxCell id="HMYjzG47Mp5TnK5JBlbz-17" value="+ override logEvent(event: AnalyticsEvent)&lt;br&gt;&lt;br&gt;+ init()" style="text;strokeColor=none;fillColor=none;align=left;verticalAlign=top;spacingLeft=4;spacingRight=4;overflow=hidden;rotatable=0;points=[[0,0.5],[1,0.5]];portConstraint=eastwest;whiteSpace=wrap;html=1;" vertex="1" parent="HMYjzG47Mp5TnK5JBlbz-16">
          <mxGeometry y="26" width="160" height="64" as="geometry" />
        </mxCell>
        <mxCell id="HMYjzG47Mp5TnK5JBlbz-18" value="AnalyticsHelperImpl(class)" style="swimlane;fontStyle=0;childLayout=stackLayout;horizontal=1;startSize=26;fillColor=none;horizontalStack=0;resizeParent=1;resizeParentMax=0;resizeLast=0;collapsible=1;marginBottom=0;whiteSpace=wrap;html=1;" vertex="1" parent="1">
          <mxGeometry x="50" y="450" width="160" height="160" as="geometry" />
        </mxCell>
        <mxCell id="HMYjzG47Mp5TnK5JBlbz-19" value="+AnalyticsHelper(FirebaseHelper, AdobeHelper, CosoleHelper injected in constructor)&lt;br&gt;&lt;br&gt;+ logEvent(event: AnalyticsEvent)&lt;br&gt;[Based on event.type - extended classes will be called]" style="text;strokeColor=none;fillColor=none;align=left;verticalAlign=top;spacingLeft=4;spacingRight=4;overflow=hidden;rotatable=0;points=[[0,0.5],[1,0.5]];portConstraint=eastwest;whiteSpace=wrap;html=1;" vertex="1" parent="HMYjzG47Mp5TnK5JBlbz-18">
          <mxGeometry y="26" width="160" height="134" as="geometry" />
        </mxCell>
        <mxCell id="HMYjzG47Mp5TnK5JBlbz-20" value="ConsoleAnalyticsHelper(class)" style="swimlane;fontStyle=0;childLayout=stackLayout;horizontal=1;startSize=26;fillColor=none;horizontalStack=0;resizeParent=1;resizeParentMax=0;resizeLast=0;collapsible=1;marginBottom=0;whiteSpace=wrap;html=1;" vertex="1" parent="1">
          <mxGeometry x="480" y="629" width="160" height="90" as="geometry" />
        </mxCell>
        <mxCell id="HMYjzG47Mp5TnK5JBlbz-21" value="+ override logEvent(event: AnalyticsEvent)&lt;br&gt;&lt;br&gt;+ init()" style="text;strokeColor=none;fillColor=none;align=left;verticalAlign=top;spacingLeft=4;spacingRight=4;overflow=hidden;rotatable=0;points=[[0,0.5],[1,0.5]];portConstraint=eastwest;whiteSpace=wrap;html=1;" vertex="1" parent="HMYjzG47Mp5TnK5JBlbz-20">
          <mxGeometry y="26" width="160" height="64" as="geometry" />
        </mxCell>
        <mxCell id="HMYjzG47Mp5TnK5JBlbz-22" value="" style="endArrow=classic;html=1;rounded=0;" edge="1" parent="1">
          <mxGeometry relative="1" as="geometry">
            <mxPoint x="200" y="120" as="sourcePoint" />
            <mxPoint x="280" y="120" as="targetPoint" />
          </mxGeometry>
        </mxCell>
        <mxCell id="HMYjzG47Mp5TnK5JBlbz-23" value="uses" style="edgeLabel;resizable=0;html=1;align=center;verticalAlign=middle;" connectable="0" vertex="1" parent="HMYjzG47Mp5TnK5JBlbz-22">
          <mxGeometry relative="1" as="geometry" />
        </mxCell>
        <mxCell id="HMYjzG47Mp5TnK5JBlbz-25" value="" style="endArrow=classic;html=1;rounded=0;entryX=0.481;entryY=1.038;entryDx=0;entryDy=0;exitX=0.5;exitY=0;exitDx=0;exitDy=0;entryPerimeter=0;edgeStyle=orthogonalEdgeStyle;" edge="1" parent="1" source="HMYjzG47Mp5TnK5JBlbz-9" target="HMYjzG47Mp5TnK5JBlbz-8">
          <mxGeometry relative="1" as="geometry">
            <mxPoint x="220" y="230" as="sourcePoint" />
            <mxPoint x="140" y="230" as="targetPoint" />
          </mxGeometry>
        </mxCell>
        <mxCell id="HMYjzG47Mp5TnK5JBlbz-26" value="uses" style="edgeLabel;resizable=0;html=1;align=center;verticalAlign=middle;" connectable="0" vertex="1" parent="HMYjzG47Mp5TnK5JBlbz-25">
          <mxGeometry relative="1" as="geometry" />
        </mxCell>
        <mxCell id="HMYjzG47Mp5TnK5JBlbz-31" value="" style="endArrow=none;html=1;rounded=0;exitX=0.45;exitY=-0.022;exitDx=0;exitDy=0;exitPerimeter=0;edgeStyle=orthogonalEdgeStyle;" edge="1" parent="1" source="HMYjzG47Mp5TnK5JBlbz-16">
          <mxGeometry width="50" height="50" relative="1" as="geometry">
            <mxPoint x="520" y="430" as="sourcePoint" />
            <mxPoint x="240" y="390" as="targetPoint" />
            <Array as="points">
              <mxPoint x="102" y="400" />
              <mxPoint x="241" y="400" />
            </Array>
          </mxGeometry>
        </mxCell>
        <mxCell id="HMYjzG47Mp5TnK5JBlbz-54" value="implement" style="edgeLabel;html=1;align=center;verticalAlign=middle;resizable=0;points=[];" vertex="1" connectable="0" parent="HMYjzG47Mp5TnK5JBlbz-31">
          <mxGeometry x="-0.8715" y="-1" relative="1" as="geometry">
            <mxPoint as="offset" />
          </mxGeometry>
        </mxCell>
        <mxCell id="HMYjzG47Mp5TnK5JBlbz-32" value="" style="endArrow=none;html=1;rounded=0;exitX=0.5;exitY=0;exitDx=0;exitDy=0;edgeStyle=orthogonalEdgeStyle;" edge="1" parent="1" source="HMYjzG47Mp5TnK5JBlbz-14">
          <mxGeometry width="50" height="50" relative="1" as="geometry">
            <mxPoint x="112" y="568" as="sourcePoint" />
            <mxPoint x="240" y="400" as="targetPoint" />
            <Array as="points">
              <mxPoint x="360" y="400" />
            </Array>
          </mxGeometry>
        </mxCell>
        <mxCell id="HMYjzG47Mp5TnK5JBlbz-55" value="implement" style="edgeLabel;html=1;align=center;verticalAlign=middle;resizable=0;points=[];" vertex="1" connectable="0" parent="HMYjzG47Mp5TnK5JBlbz-32">
          <mxGeometry x="-0.8052" y="-1" relative="1" as="geometry">
            <mxPoint as="offset" />
          </mxGeometry>
        </mxCell>
        <mxCell id="HMYjzG47Mp5TnK5JBlbz-33" value="" style="endArrow=none;html=1;rounded=0;exitX=0.5;exitY=0;exitDx=0;exitDy=0;edgeStyle=orthogonalEdgeStyle;" edge="1" parent="1" source="HMYjzG47Mp5TnK5JBlbz-20">
          <mxGeometry width="50" height="50" relative="1" as="geometry">
            <mxPoint x="540" y="580" as="sourcePoint" />
            <mxPoint x="360" y="400" as="targetPoint" />
            <Array as="points">
              <mxPoint x="560" y="400" />
            </Array>
          </mxGeometry>
        </mxCell>
        <mxCell id="HMYjzG47Mp5TnK5JBlbz-56" value="implement" style="edgeLabel;html=1;align=center;verticalAlign=middle;resizable=0;points=[];" vertex="1" connectable="0" parent="HMYjzG47Mp5TnK5JBlbz-33">
          <mxGeometry x="-0.8228" y="-1" relative="1" as="geometry">
            <mxPoint as="offset" />
          </mxGeometry>
        </mxCell>
        <mxCell id="HMYjzG47Mp5TnK5JBlbz-34" value="«interface»&lt;br&gt;&lt;b&gt;DI&lt;br&gt;AnalyticsHelperModule&lt;br&gt;&lt;br&gt;binds AnalyticsHelperImpl&lt;br&gt;&lt;/b&gt;" style="html=1;whiteSpace=wrap;" vertex="1" parent="1">
          <mxGeometry x="410" y="200" width="110" height="160" as="geometry" />
        </mxCell>
        <mxCell id="HMYjzG47Mp5TnK5JBlbz-35" value="" style="rounded=0;orthogonalLoop=1;jettySize=auto;html=1;endArrow=halfCircle;endFill=0;endSize=6;strokeWidth=1;sketch=0;exitX=0;exitY=0.5;exitDx=10;exitDy=0;exitPerimeter=0;" edge="1" target="HMYjzG47Mp5TnK5JBlbz-37" parent="1" source="HMYjzG47Mp5TnK5JBlbz-41">
          <mxGeometry relative="1" as="geometry">
            <mxPoint x="710" y="280" as="sourcePoint" />
          </mxGeometry>
        </mxCell>
        <mxCell id="HMYjzG47Mp5TnK5JBlbz-36" value="" style="rounded=0;orthogonalLoop=1;jettySize=auto;html=1;endArrow=oval;endFill=0;sketch=0;sourcePerimeterSpacing=0;targetPerimeterSpacing=0;endSize=10;exitX=1;exitY=0.5;exitDx=0;exitDy=0;" edge="1" target="HMYjzG47Mp5TnK5JBlbz-37" parent="1" source="HMYjzG47Mp5TnK5JBlbz-34">
          <mxGeometry relative="1" as="geometry">
            <mxPoint x="670" y="280" as="sourcePoint" />
          </mxGeometry>
        </mxCell>
        <mxCell id="HMYjzG47Mp5TnK5JBlbz-37" value="" style="ellipse;whiteSpace=wrap;html=1;align=center;aspect=fixed;fillColor=none;strokeColor=none;resizable=0;perimeter=centerPerimeter;rotatable=0;allowArrows=0;points=[];outlineConnect=1;" vertex="1" parent="1">
          <mxGeometry x="609" y="275" width="10" height="10" as="geometry" />
        </mxCell>
        <mxCell id="HMYjzG47Mp5TnK5JBlbz-38" value="" style="endArrow=classic;html=1;rounded=0;exitX=1;exitY=0.5;exitDx=0;exitDy=0;edgeStyle=orthogonalEdgeStyle;" edge="1" parent="1" source="HMYjzG47Mp5TnK5JBlbz-10">
          <mxGeometry width="50" height="50" relative="1" as="geometry">
            <mxPoint x="360" y="335" as="sourcePoint" />
            <mxPoint x="410" y="285" as="targetPoint" />
          </mxGeometry>
        </mxCell>
        <mxCell id="HMYjzG47Mp5TnK5JBlbz-39" value="" style="endArrow=none;dashed=1;html=1;dashPattern=1 3;strokeWidth=2;rounded=0;" edge="1" parent="1">
          <mxGeometry width="50" height="50" relative="1" as="geometry">
            <mxPoint x="720" y="680" as="sourcePoint" />
            <mxPoint x="720" y="74" as="targetPoint" />
          </mxGeometry>
        </mxCell>
        <mxCell id="HMYjzG47Mp5TnK5JBlbz-41" value="Feature1" style="shape=module;align=left;spacingLeft=20;align=center;verticalAlign=top;whiteSpace=wrap;html=1;" vertex="1" parent="1">
          <mxGeometry x="750" y="86" width="330" height="164" as="geometry" />
        </mxCell>
        <mxCell id="HMYjzG47Mp5TnK5JBlbz-44" value="Feature1Analytics&amp;lt;class uses DI for analyticsHelper&amp;gt;" style="swimlane;fontStyle=0;childLayout=stackLayout;horizontal=1;startSize=26;fillColor=none;horizontalStack=0;resizeParent=1;resizeParentMax=0;resizeLast=0;collapsible=1;marginBottom=0;whiteSpace=wrap;html=1;" vertex="1" parent="1">
          <mxGeometry x="780" y="120" width="270" height="86" as="geometry" />
        </mxCell>
        <mxCell id="HMYjzG47Mp5TnK5JBlbz-45" value="+ logTest1Event(AnalyticsHelper.logevent)" style="text;strokeColor=none;fillColor=none;align=left;verticalAlign=top;spacingLeft=4;spacingRight=4;overflow=hidden;rotatable=0;points=[[0,0.5],[1,0.5]];portConstraint=eastwest;whiteSpace=wrap;html=1;" vertex="1" parent="HMYjzG47Mp5TnK5JBlbz-44">
          <mxGeometry y="26" width="270" height="34" as="geometry" />
        </mxCell>
        <mxCell id="HMYjzG47Mp5TnK5JBlbz-47" value="+ logTest2Event(AnalyticsHelper.logevent)" style="text;strokeColor=none;fillColor=none;align=left;verticalAlign=top;spacingLeft=4;spacingRight=4;overflow=hidden;rotatable=0;points=[[0,0.5],[1,0.5]];portConstraint=eastwest;whiteSpace=wrap;html=1;" vertex="1" parent="HMYjzG47Mp5TnK5JBlbz-44">
          <mxGeometry y="60" width="270" height="26" as="geometry" />
        </mxCell>
        <mxCell id="HMYjzG47Mp5TnK5JBlbz-48" value="Feature2" style="shape=module;align=left;spacingLeft=20;align=center;verticalAlign=top;whiteSpace=wrap;html=1;" vertex="1" parent="1">
          <mxGeometry x="760" y="350" width="330" height="164" as="geometry" />
        </mxCell>
        <mxCell id="HMYjzG47Mp5TnK5JBlbz-49" value="Feature2Analytics&amp;lt;filename with extension functions&amp;gt;" style="swimlane;fontStyle=0;childLayout=stackLayout;horizontal=1;startSize=26;fillColor=none;horizontalStack=0;resizeParent=1;resizeParentMax=0;resizeLast=0;collapsible=1;marginBottom=0;whiteSpace=wrap;html=1;" vertex="1" parent="1">
          <mxGeometry x="800" y="400" width="270" height="86" as="geometry" />
        </mxCell>
        <mxCell id="HMYjzG47Mp5TnK5JBlbz-50" value="+ fun AnalyticsHelper.logTestEvent() {}" style="text;strokeColor=none;fillColor=none;align=left;verticalAlign=top;spacingLeft=4;spacingRight=4;overflow=hidden;rotatable=0;points=[[0,0.5],[1,0.5]];portConstraint=eastwest;whiteSpace=wrap;html=1;" vertex="1" parent="HMYjzG47Mp5TnK5JBlbz-49">
          <mxGeometry y="26" width="270" height="34" as="geometry" />
        </mxCell>
        <mxCell id="HMYjzG47Mp5TnK5JBlbz-51" value="+ fun AnalyticsHelper.logTest2Event() {}" style="text;strokeColor=none;fillColor=none;align=left;verticalAlign=top;spacingLeft=4;spacingRight=4;overflow=hidden;rotatable=0;points=[[0,0.5],[1,0.5]];portConstraint=eastwest;whiteSpace=wrap;html=1;" vertex="1" parent="HMYjzG47Mp5TnK5JBlbz-49">
          <mxGeometry y="60" width="270" height="26" as="geometry" />
        </mxCell>
        <mxCell id="HMYjzG47Mp5TnK5JBlbz-52" value="" style="rounded=0;orthogonalLoop=1;jettySize=auto;html=1;endArrow=halfCircle;endFill=0;endSize=6;strokeWidth=1;sketch=0;exitX=0;exitY=0.5;exitDx=10;exitDy=0;exitPerimeter=0;" edge="1" parent="1" source="HMYjzG47Mp5TnK5JBlbz-48">
          <mxGeometry relative="1" as="geometry">
            <mxPoint x="770" y="178" as="sourcePoint" />
            <mxPoint x="610" y="280" as="targetPoint" />
          </mxGeometry>
        </mxCell>
        <mxCell id="HMYjzG47Mp5TnK5JBlbz-53" value="" style="endArrow=none;html=1;rounded=0;exitX=0.5;exitY=0;exitDx=0;exitDy=0;edgeStyle=orthogonalEdgeStyle;" edge="1" parent="1" source="HMYjzG47Mp5TnK5JBlbz-18">
          <mxGeometry width="50" height="50" relative="1" as="geometry">
            <mxPoint x="520" y="710" as="sourcePoint" />
            <mxPoint x="240" y="400" as="targetPoint" />
            <Array as="points">
              <mxPoint x="130" y="400" />
            </Array>
          </mxGeometry>
        </mxCell>
      </root>
    </mxGraphModel>
  </diagram>
</mxfile>
